<svg width="150" height="49" viewBox="0 0 150 49" fill="none" xmlns="http://www.w3.org/2000/svg">
<path d="M11.8449 45.5949C11.8449 45.8074 11.9087 45.988 12.0361 46.1367C12.1636 46.2854 12.3548 46.381 12.6098 46.4235L16.1792 46.9016C16.3067 46.9228 16.4023 46.9547 16.466 46.9972C16.5298 47.0184 16.5616 47.0822 16.5616 47.1884C16.5616 47.3159 16.466 47.3796 16.2748 47.3796H1.23231C1.18982 47.3796 1.14733 47.369 1.10483 47.3477C1.06234 47.3053 1.04109 47.2628 1.04109 47.2203C1.04109 47.1565 1.06234 47.1034 1.10483 47.0609C1.14733 47.0184 1.22169 46.9972 1.32792 46.9972L3.75002 46.5191C3.98373 46.4554 4.1537 46.3704 4.25993 46.2642C4.36616 46.1367 4.41928 45.9773 4.41928 45.7861V21.2146C4.41928 21.0659 4.38741 20.9384 4.32367 20.8322C4.25993 20.7047 4.1537 20.6303 4.00497 20.6091L0.4037 19.8442C0.318714 19.823 0.254975 19.8017 0.212482 19.7805C0.169989 19.738 0.148743 19.6849 0.148743 19.6211C0.148743 19.5574 0.169989 19.5043 0.212482 19.4618C0.276221 19.4193 0.339961 19.398 0.4037 19.398H4.86546L4.48302 19.6849V19.2705C4.48302 18.6332 4.33429 17.9958 4.03684 17.3584C3.76064 16.6997 3.43132 16.0198 3.04888 15.3187C2.68769 14.6176 2.35837 13.8421 2.06092 12.9922C1.78472 12.1424 1.64662 11.1969 1.64662 10.1558C1.64662 7.5425 2.42211 5.50284 3.97311 4.03684C5.54534 2.54958 7.6275 1.80596 10.2196 1.80596C11.898 1.80596 13.2897 2.08216 14.3945 2.63457C15.4993 3.18698 16.3173 3.9306 16.8485 4.86545C17.3796 5.80029 17.6452 6.82012 17.6452 7.92494C17.6452 9.17848 17.3371 10.1133 16.721 10.7295C16.1261 11.3244 15.34 11.6218 14.3626 11.6218C13.3853 11.6218 12.5567 11.2819 11.8768 10.602C11.2181 9.92211 10.8888 9.00851 10.8888 7.8612V4.73797C10.8888 3.95185 10.7189 3.36757 10.3789 2.98514C10.039 2.58145 9.49718 2.37961 8.75356 2.37961C7.6275 2.37961 6.72452 2.77267 6.04463 3.55879C5.38599 4.32366 5.05667 5.41786 5.05667 6.84137C5.05667 7.98868 5.27976 9.07225 5.72594 10.0921C6.19336 11.0907 6.75639 12.0361 7.41503 12.9285C8.09492 13.7996 8.76418 14.6282 9.42282 15.4143C10.1027 16.1792 10.6657 16.9228 11.1119 17.6452C11.5793 18.3463 11.813 19.0368 11.813 19.7167V20.0992L11.4306 19.398H16.7847C16.9122 19.398 16.9972 19.4193 17.0397 19.4618C17.0822 19.483 17.1034 19.5361 17.1034 19.6211C17.1034 19.7486 17.0291 19.8548 16.8803 19.9398C16.7529 20.0248 16.5616 20.0673 16.3067 20.0673H11.8449V45.5949ZM29.1502 0.435559V45.6268C29.1502 45.903 29.2033 46.1261 29.3095 46.296C29.437 46.466 29.6388 46.5722 29.915 46.6147L31.6679 46.9334C31.7953 46.9334 31.8803 46.9653 31.9228 47.029C31.9653 47.0715 31.9866 47.1247 31.9866 47.1884C31.9866 47.2309 31.9653 47.2734 31.9228 47.3159C31.8803 47.3584 31.8166 47.3796 31.7316 47.3796H18.8881C18.8244 47.3796 18.7606 47.3584 18.6969 47.3159C18.6544 47.2734 18.6332 47.2309 18.6332 47.1884C18.6332 47.1247 18.665 47.0715 18.7288 47.029C18.7925 46.9653 18.8987 46.9228 19.0475 46.9016L20.7684 46.6147C21.0446 46.5722 21.2359 46.466 21.3421 46.296C21.4696 46.1261 21.5333 45.9136 21.5333 45.6586V3.62253C21.5333 3.49505 21.5014 3.39944 21.4377 3.3357C21.374 3.25072 21.2677 3.20822 21.119 3.20822H19.0475C18.9412 3.20822 18.8669 3.18698 18.8244 3.14448C18.7819 3.10199 18.7606 3.04888 18.7606 2.98514C18.7606 2.90015 18.7819 2.84703 18.8244 2.82579C18.8881 2.78329 18.9519 2.75142 19.0156 2.73018L28.1622 0.180601C28.3534 0.138109 28.4809 0.116863 28.5446 0.116863C28.6296 0.0956151 28.7146 0.0849915 28.7996 0.0849915C28.9058 0.0849915 28.9908 0.116861 29.0546 0.180601C29.1183 0.244341 29.1502 0.329326 29.1502 0.435559ZM48.2042 44.4157V44.1289L47.8536 44.4476V23.9235C47.8536 22.3938 47.5349 21.2252 46.8975 20.4179C46.2601 19.6105 45.3465 19.2068 44.1567 19.2068C42.8395 19.2068 41.8515 19.5361 41.1929 20.1948C40.5342 20.8534 40.2049 21.6077 40.2049 22.4575V25.039C40.2049 26.1013 39.8331 26.9936 39.0895 27.716C38.3458 28.4384 37.3791 28.7996 36.1893 28.7996C35.3607 28.7996 34.6702 28.5553 34.1178 28.0666C33.5866 27.5567 33.3211 26.7918 33.3211 25.772C33.3211 24.6459 33.7672 23.5517 34.6596 22.4894C35.5519 21.4058 36.8692 20.5135 38.6114 19.8123C40.3749 19.1112 42.5314 18.7606 45.081 18.7606C48.5654 18.7606 51.1681 19.4936 52.889 20.9596C54.6312 22.4044 55.5023 24.4653 55.5023 27.1424V43.6827C55.5023 44.4264 55.6298 44.9681 55.8848 45.3081C56.1397 45.6268 56.4584 45.7861 56.8409 45.7861C57.2233 45.7861 57.5633 45.6693 57.8607 45.4356C58.1582 45.2019 58.3494 44.8088 58.4344 44.2564C58.4344 44.1926 58.445 44.1502 58.4662 44.1289C58.5087 44.0864 58.5512 44.0652 58.5937 44.0652C58.6362 44.0652 58.6681 44.0864 58.6893 44.1289C58.7318 44.1502 58.7531 44.1926 58.7531 44.2564C58.7531 44.6601 58.5618 45.1487 58.1794 45.7224C57.8182 46.296 57.2233 46.8166 56.3947 47.284C55.5661 47.7302 54.4613 47.9533 53.0803 47.9533C51.3805 47.9533 50.1376 47.6239 49.3515 46.9653C48.5866 46.3067 48.2042 45.4568 48.2042 44.4157ZM31.7276 41.1969C31.7276 38.881 32.6837 37.022 34.5958 35.6197C36.508 34.1962 39.5463 33.4844 43.7106 33.4844C45.0066 33.4844 46.0689 33.6225 46.8975 33.8987C47.7474 34.1537 48.5335 34.4724 49.2559 34.8548L49.0009 35.0779C48.2786 34.738 47.5456 34.4724 46.8019 34.2812C46.0583 34.09 45.2191 33.9943 44.2842 33.9943C42.6907 33.9943 41.4584 34.5255 40.5873 35.5878C39.7375 36.6502 39.3126 38.148 39.3126 40.0815C39.3126 41.9511 39.7269 43.3747 40.5555 44.352C41.3841 45.3081 42.457 45.7861 43.7743 45.7861C44.6667 45.7861 45.5378 45.5843 46.3876 45.1806C47.2587 44.7557 47.9811 44.1502 48.5548 43.364L48.9053 43.5553C47.9705 44.9788 46.6851 46.073 45.0491 46.8378C43.4344 47.5815 41.6922 47.9533 39.8225 47.9533C37.4216 47.9533 35.4669 47.3265 33.9584 46.073C32.4712 44.7982 31.7276 43.1728 31.7276 41.1969ZM68.4147 19.2068V45.6268C68.4147 45.903 68.4678 46.1261 68.574 46.296C68.7015 46.466 68.9033 46.5722 69.1795 46.6147L70.9324 46.9334C71.1448 46.9759 71.2511 47.0609 71.2511 47.1884C71.2511 47.3159 71.1661 47.3796 70.9961 47.3796H58.1526C58.0889 47.3796 58.0252 47.3584 57.9614 47.3159C57.9189 47.2734 57.8977 47.2309 57.8977 47.1884C57.8977 47.1247 57.9189 47.0822 57.9614 47.0609C58.0039 47.0184 58.0889 46.9866 58.2164 46.9653L60.0329 46.6147C60.3091 46.5722 60.5004 46.466 60.6066 46.296C60.7341 46.1261 60.7978 45.9136 60.7978 45.6586V22.3619C60.7978 22.2344 60.7659 22.1388 60.7022 22.0751C60.6385 21.9901 60.5322 21.9476 60.3835 21.9476H58.312C58.2057 21.9476 58.1314 21.9264 58.0889 21.8839C58.0464 21.8414 58.0252 21.7883 58.0252 21.7245C58.0252 21.6608 58.0464 21.6183 58.0889 21.597C58.1526 21.5545 58.2164 21.5227 58.2801 21.5014L67.4267 18.9519C67.6179 18.8881 67.7454 18.8562 67.8091 18.8562C67.8941 18.835 67.9791 18.8244 68.0641 18.8244C68.1703 18.8244 68.2553 18.8669 68.3191 18.9519C68.3828 19.0156 68.4147 19.1006 68.4147 19.2068ZM67.7773 25.4851L67.4586 25.1664L68.6059 24.1466C70.7093 22.2557 72.5259 20.8853 74.0556 20.0354C75.6066 19.1856 77.0514 18.7606 78.3899 18.7606C80.3446 18.7606 81.8637 19.3768 82.9473 20.6091C84.0308 21.8201 84.732 23.7217 85.0506 26.3137L87.4409 45.4356C87.4834 45.7755 87.5684 46.0517 87.6958 46.2642C87.8446 46.4766 88.0783 46.6147 88.397 46.6785L89.9586 46.9653C90.0648 46.9653 90.1392 46.9866 90.1817 47.029C90.2242 47.0715 90.2454 47.1247 90.2454 47.1884C90.2454 47.2309 90.2242 47.2734 90.1817 47.3159C90.1392 47.3584 90.0754 47.3796 89.9905 47.3796H76.9239C76.7327 47.3796 76.6371 47.3159 76.6371 47.1884C76.6371 47.0609 76.7539 46.9759 76.9876 46.9334L78.8042 46.6147C79.1441 46.5722 79.3778 46.4448 79.5053 46.2323C79.654 46.0198 79.7072 45.7543 79.6647 45.4356L77.5613 27.0786C77.3488 25.3577 76.9451 24.1041 76.3502 23.318C75.7553 22.5319 74.863 22.1388 73.6732 22.1388C72.8871 22.1388 72.1116 22.3407 71.3467 22.7443C70.5818 23.1268 69.7638 23.7111 68.8927 24.4972L67.7773 25.4851ZM90.7269 20.4497L87.9542 19.8761C87.8267 19.8548 87.7417 19.823 87.6992 19.7805C87.6567 19.738 87.6355 19.6849 87.6355 19.6211C87.6355 19.5574 87.6567 19.5043 87.6992 19.4618C87.7417 19.4193 87.7948 19.398 87.8586 19.398H90.6631C90.7906 19.398 90.8968 19.3768 90.9818 19.3343C91.088 19.2918 91.1837 19.2174 91.2686 19.1112L97.4195 13.056C97.5257 12.9497 97.632 12.8647 97.7382 12.801C97.8657 12.7373 97.9825 12.7054 98.0888 12.7054C98.2162 12.7054 98.3118 12.7479 98.3756 12.8329C98.4606 12.9179 98.5031 13.0347 98.5031 13.1834V40.0177C98.5031 41.7387 98.8218 43.0241 99.4591 43.8739C100.118 44.7026 101.01 45.1169 102.136 45.1169C102.54 45.1169 102.922 45.0638 103.284 44.9575C103.645 44.83 103.985 44.6388 104.303 44.3839C104.622 44.1077 104.898 43.7571 105.132 43.3322C105.387 42.9072 105.599 42.3867 105.769 41.7705C105.812 41.6431 105.876 41.5793 105.961 41.5793C106.067 41.5793 106.099 41.6537 106.056 41.8024C105.716 43.2047 105.238 44.3626 104.622 45.2762C104.027 46.1686 103.252 46.8378 102.296 47.284C101.361 47.7302 100.213 47.9533 98.8536 47.9533C96.389 47.9533 94.4875 47.369 93.1489 46.2004C91.8104 45.0319 91.1412 43.2366 91.1412 40.8145V21.0553C91.1412 20.864 91.1093 20.7259 91.0456 20.6409C91.0031 20.5347 90.8968 20.471 90.7269 20.4497ZM96.1447 20.0673L96.3678 19.398H105.833C105.939 19.398 106.014 19.4193 106.056 19.4618C106.12 19.483 106.152 19.5468 106.152 19.653C106.152 19.7592 106.077 19.8548 105.929 19.9398C105.801 20.0248 105.61 20.0673 105.355 20.0673H96.1447ZM115.667 19.2068V45.6268C115.667 45.903 115.72 46.1261 115.826 46.296C115.954 46.466 116.155 46.5722 116.432 46.6147L118.185 46.9334C118.312 46.9334 118.397 46.9653 118.439 47.029C118.482 47.0715 118.503 47.1247 118.503 47.1884C118.503 47.2309 118.482 47.2734 118.439 47.3159C118.397 47.3584 118.333 47.3796 118.248 47.3796H105.405C105.341 47.3796 105.277 47.3584 105.214 47.3159C105.171 47.2734 105.15 47.2309 105.15 47.1884C105.15 47.1247 105.171 47.0822 105.214 47.0609C105.256 47.0184 105.341 46.9866 105.468 46.9653L107.285 46.6147C107.561 46.5722 107.752 46.466 107.859 46.296C107.986 46.1261 108.05 45.9136 108.05 45.6586V22.3619C108.05 22.2344 108.018 22.1388 107.954 22.0751C107.891 21.9901 107.784 21.9476 107.636 21.9476H105.564C105.458 21.9476 105.384 21.9264 105.341 21.8839C105.299 21.8414 105.277 21.7883 105.277 21.7245C105.277 21.6608 105.299 21.6183 105.341 21.597C105.405 21.5545 105.468 21.5227 105.532 21.5014L114.679 18.9519C114.87 18.8881 114.998 18.8562 115.061 18.8562C115.146 18.835 115.231 18.8244 115.316 18.8244C115.422 18.8244 115.507 18.8669 115.571 18.9519C115.635 19.0156 115.667 19.1006 115.667 19.2068ZM111.715 14.8088C110.376 14.8088 109.282 14.3626 108.432 13.4703C107.604 12.5779 107.189 11.4943 107.189 10.2196C107.189 8.92352 107.604 7.82933 108.432 6.93698C109.282 6.04463 110.376 5.59845 111.715 5.59845C113.053 5.59845 114.148 6.04463 114.998 6.93698C115.869 7.82933 116.304 8.92352 116.304 10.2196C116.304 11.4943 115.869 12.5779 114.998 13.4703C114.148 14.3626 113.053 14.8088 111.715 14.8088ZM127.889 31.4766C127.889 28.6721 128.293 26.335 129.101 24.4653C129.908 22.5744 130.938 21.1509 132.192 20.1948C133.467 19.2387 134.795 18.7606 136.176 18.7606C137.748 18.7606 138.959 19.2599 139.809 20.2585C140.659 21.2358 141.084 22.6381 141.084 24.4653C141.084 26.0588 140.712 27.238 139.968 28.0028C139.224 28.7677 138.3 29.1501 137.195 29.1501C136.176 29.1501 135.411 28.8633 134.901 28.2897C134.391 27.716 134.115 26.8662 134.072 25.7401L134.008 24.7203C134.008 24.0616 133.881 23.5623 133.626 23.2224C133.371 22.8824 132.925 22.7125 132.287 22.7125C131.629 22.7125 130.991 23.0418 130.375 23.7004C129.759 24.3591 129.249 25.3577 128.846 26.6962C128.463 28.0135 128.272 29.6707 128.272 31.6679L127.889 31.4766ZM128.272 19.4299V30.0106V45.4356C128.272 45.6693 128.336 45.8817 128.463 46.073C128.612 46.2642 128.814 46.381 129.069 46.4235L132.224 46.9334C132.351 46.9547 132.426 46.9866 132.447 47.029C132.489 47.0715 132.511 47.1247 132.511 47.1884C132.511 47.2309 132.479 47.2734 132.415 47.3159C132.372 47.3584 132.309 47.3796 132.224 47.3796H118.074C117.989 47.3796 117.914 47.3584 117.851 47.3159C117.787 47.2521 117.755 47.199 117.755 47.1565C117.755 47.114 117.787 47.0715 117.851 47.029C117.935 46.9653 118.042 46.9228 118.169 46.9016L119.89 46.6147C120.166 46.5722 120.358 46.4766 120.464 46.3279C120.591 46.1579 120.655 45.9667 120.655 45.7543V22.2663C120.655 22.1176 120.623 22.0007 120.559 21.9157C120.517 21.8095 120.411 21.7564 120.241 21.7564H118.074C118.031 21.7564 117.978 21.7351 117.914 21.6926C117.872 21.6502 117.851 21.6077 117.851 21.5652C117.851 21.5014 117.872 21.4483 117.914 21.4058C117.978 21.3633 118.052 21.3315 118.137 21.3102L127.316 19.1112C127.465 19.0687 127.581 19.0475 127.666 19.0475C127.751 19.0262 127.836 19.0156 127.921 19.0156C128.049 19.0156 128.134 19.0581 128.176 19.1431C128.24 19.2281 128.272 19.3237 128.272 19.4299Z" fill="#002A2D"/>
<path d="M145.3 47.9533C144.45 47.9533 143.685 47.7408 143.005 47.3159C142.325 46.8697 141.783 46.2854 141.38 45.563C140.997 44.8406 140.806 44.0439 140.806 43.1728C140.806 42.3229 141.008 41.5368 141.412 40.8144C141.815 40.0921 142.357 39.5184 143.037 39.0935C143.717 38.6685 144.482 38.4561 145.332 38.4561C146.181 38.4561 146.946 38.6685 147.626 39.0935C148.327 39.5184 148.88 40.0921 149.283 40.8144C149.687 41.5156 149.889 42.2911 149.889 43.1409C149.889 44.0333 149.687 44.8406 149.283 45.563C148.88 46.2854 148.338 46.8697 147.658 47.3159C146.978 47.7408 146.192 47.9533 145.3 47.9533Z" fill="#FFBD44"/>
</svg>
